<svg xmlns="http://www.w3.org/2000/svg" xmlns:xlink="http://www.w3.org/1999/xlink" viewBox="0 0 252 151"><path d="M 17.624 28.023 L 20.979 27.929 C 20.979 27.929 17.122 25.883 17.624 28.023 L 18.844 34.706 C 18.328 32.497 17.921 30.267 17.624 28.023 Z M 20.914 42.19 L 24.157 41.607 C 24.876 43.727 25.69 45.817 26.597 47.871 L 23.442 48.683 C 22.503 46.554 21.659 44.387 20.914 42.19 Z M 26.879 55.805 L 29.923 54.773 C 31.016 56.764 32.219 58.76 33.501 60.703 L 30.584 61.944 C 29.266 59.944 28.03 57.896 26.879 55.805 Z M 35.268 68.595 L 38.039 67.153 C 39.501 69.024 41.036 70.842 42.642 72.603 L 40.03 74.239 C 38.371 72.413 36.782 70.531 35.268 68.595 Z M 45.828 80.248 L 48.26 78.433 C 50.034 80.104 51.873 81.712 53.774 83.253 L 51.54 85.241 C 49.574 83.647 47.654 81.967 45.828 80.249 Z M 58.329 90.448 L 60.344 88.294 C 62.391 89.716 64.494 91.063 66.649 92.332 L 64.874 94.639 C 62.637 93.321 60.453 91.923 58.329 90.448 Z M 72.505 98.848 L 74.022 96.402 C 74.831 96.799 75.646 97.185 76.461 97.558 C 77.947 98.238 79.453 98.881 80.969 99.492 L 79.727 102.061 C 77.277 101.079 74.868 100.007 72.506 98.848 Z M 88.014 105.106 L 88.974 102.435 C 91.412 103.21 93.878 103.899 96.369 104.503 L 95.681 107.248 C 93.099 106.622 90.542 105.907 88.014 105.106 Z M 104.731 106.276 C 107.231 106.703 109.792 107.049 112.336 107.308 L 112.198 110.148 C 109.56 109.878 106.934 109.522 104.322 109.079 Z M 120.811 107.924 C 123.342 108.01 125.901 108.01 128.417 107.926 L 128.818 110.784 C 126.213 110.872 123.562 110.871 120.943 110.783 Z M 136.778 107.315 C 139.276 107.06 141.769 106.715 144.192 106.291 L 145.123 109.095 C 142.614 109.532 140.031 109.891 137.445 110.155 Z M 152.232 104.528 C 154.61 103.932 156.972 103.244 159.249 102.48 L 160.701 105.153 C 158.306 105.953 155.877 106.661 153.421 107.274 Z M 166.731 99.566 C 168.91 98.636 171.044 97.616 173.127 96.507 L 175.083 98.962 C 172.919 100.115 170.702 101.176 168.438 102.142 Z M 179.827 92.482 C 181.767 91.234 183.657 89.915 185.491 88.528 L 187.847 90.731 C 185.953 92.16 184.003 93.521 182.002 94.812 Z M 191.411 83.671 C 193.125 82.192 194.794 80.665 196.414 79.093 L 199.029 81.071 C 197.37 82.68 195.661 84.243 193.905 85.757 Z M 201.678 73.665 C 203.215 72.032 204.718 70.372 206.188 68.684 L 208.959 70.501 C 207.467 72.211 205.941 73.895 204.383 75.552 Z M 210.997 62.917 C 212.416 61.194 213.819 59.459 215.206 57.712 L 218.053 59.438 C 216.658 61.195 215.245 62.941 213.816 64.675 Z" fill="rgb(255,122,0)"></path><path d="M 204.01 51.274 C 204.01 43.972 210.25 38.053 217.949 38.053 C 225.647 38.053 231.888 43.972 231.888 51.274 C 231.888 58.576 225.647 64.495 217.949 64.495 C 210.25 64.495 204.01 58.576 204.01 51.274 Z" fill="rgb(255,122,0)"></path><path d="M 214.46 49.155 C 214.434 50.375 214.624 51.486 215.789 52.281 C 215.727 51.923 215.651 51.569 215.607 51.21 C 215.405 49.569 215.563 47.99 216.663 46.586 C 217.282 45.793 218.085 45.181 219.077 44.671 C 218.994 44.926 218.906 45.124 218.867 45.33 C 218.695 46.229 219.026 47.008 219.72 47.636 C 220.23 48.097 220.818 48.494 221.404 48.882 C 222.446 49.574 223.299 50.393 223.744 51.496 C 224.804 54.128 223.67 57.009 220.698 58.238 C 217.916 59.387 214.327 58.156 213.204 55.586 C 212.263 53.431 212.508 51.348 214.109 49.454 C 214.176 49.375 214.252 49.302 214.328 49.229 C 214.346 49.209 214.377 49.199 214.46 49.155 Z M 215.674 56.191 C 216.438 57.132 218.399 57.803 220.214 57.171 C 222.084 56.52 223.155 54.755 222.759 52.977 C 222.451 51.599 221.086 50.427 219.9 50.272 C 220.647 51.154 220.96 52.123 220.771 53.21 C 220.595 54.231 219.558 55.568 218.832 55.667 C 219.195 54.967 219.402 54.25 219.214 53.469 C 218.623 54.978 217.471 55.899 215.674 56.191 Z" fill="rgb(255,255,255)"></path></svg>